# xmcd CD database file
#
# Track frame offsets:
#	150
#	13879
#	24392
#	37748
#	47148
#	62051
#	74775
#	88381
#	101161
#	117837
#
# Disc length: 1742 seconds
#
# Revision: 0
# Processed by: cddbd v1.4PL0 Copyright (c) Steve Scherf et al.
# Submitted via: CDex 1.40Release
#
DISCID=8b06cc0a
DTITLE=Calamity Jane - Calamity Jane
DYEAR=1982
DGENRE=Country
TTITLE0=Love Wheel
TTITLE1=I've Just Seen A Face
TTITLE2=Midnight Bandit
TTITLE3=Walkin' After Midnight
TTITLE4=Deep In The Night
TTITLE5=When Love In Your Heart
TTITLE6=Send Me Somebody To Love
TTITLE7=Never Say Never
TTITLE8=Pick Me Up
TTITLE9=I Couldn't Live Without Your Love
EXTD=YEAR: 1982 ID3G: 2
EXTT0=
EXTT1=
EXTT2=
EXTT3=
EXTT4=
EXTT5=
EXTT6=
EXTT7=
EXTT8=
EXTT9=
PLAYORDER=
